<svg xmlns="http://www.w3.org/2000/svg" width="72.533" height="128" viewBox="0 0 72.533 128">
  <path id="Smartphone" d="M7.712,128A7.722,7.722,0,0,1,0,120.288V7.712A7.722,7.722,0,0,1,7.712,0H64.823a7.721,7.721,0,0,1,7.71,7.712V14.9c0,.01,0,.02,0,.031v89.6c0,.01,0,.02,0,.031V120.29A7.721,7.721,0,0,1,64.821,128Zm-3.445-7.71a3.449,3.449,0,0,0,3.445,3.443H64.823a3.449,3.449,0,0,0,3.443-3.445h0V106.666h-64Zm0-17.89h64V17.067h-64Zm64-89.6V7.712a3.449,3.449,0,0,0-3.445-3.445H7.712A3.449,3.449,0,0,0,4.267,7.712V12.8ZM33.617,121.6a5.891,5.891,0,0,1-5.884-5.884v-1.031a5.893,5.893,0,0,1,5.886-5.886h5.3a5.893,5.893,0,0,1,5.884,5.886v1.031a5.891,5.891,0,0,1-5.886,5.884ZM32,114.686v1.031a1.619,1.619,0,0,0,1.619,1.617h5.3a1.619,1.619,0,0,0,1.617-1.617v-1.031a1.62,1.62,0,0,0-1.619-1.619H33.619A1.62,1.62,0,0,0,32,114.686ZM59.733,10.667a2.133,2.133,0,0,1,0-4.267h2.133a2.133,2.133,0,0,1,0,4.267Zm-34.133,0a2.133,2.133,0,0,1,0-4.267H46.933a2.133,2.133,0,0,1,0,4.267Z"/>
</svg>
